<?xml version="1.0" standalone="no"?>
<!DOCTYPE svg PUBLIC "-//W3C//DTD SVG 20010904//EN"
 "http://www.w3.org/TR/2001/REC-SVG-20010904/DTD/svg10.dtd">
<svg version="1.0" xmlns="http://www.w3.org/2000/svg"
 width="255.000000pt" height="134.000000pt" viewBox="0 0 255.000000 134.000000"
 preserveAspectRatio="xMidYMid meet">

<g transform="translate(0.000000,134.000000) scale(0.100000,-0.100000)"
fill="#000000" stroke="none">
<path d="M666 1258 c8 -22 17 -65 20 -95 4 -29 8 -53 10 -53 1 0 18 14 36 30
18 17 38 30 45 30 34 0 -3 50 -81 108 -41 31 -47 27 -30 -20z"/>
<path d="M758 1111 c-56 -36 -64 -49 -72 -126 l-7 -60 26 33 c52 64 151 102
183 70 25 -25 23 3 -2 46 -24 42 -51 66 -73 66 -5 0 -30 -13 -55 -29z"/>
<path d="M795 981 c-59 -27 -115 -96 -157 -197 -21 -48 -36 -89 -34 -91 2 -2
30 26 62 63 108 123 195 155 264 97 l32 -27 -7 35 c-13 68 -27 99 -52 119 -32
25 -56 25 -108 1z"/>
<path d="M1255 858 c2 -7 36 -128 75 -268 39 -140 73 -256 75 -258 2 -3 30 -4
62 -4 l57 0 77 271 76 271 -58 0 -58 0 -10 -36 c-5 -20 -27 -106 -47 -191 -21
-88 -40 -149 -44 -142 -4 8 -26 94 -49 192 l-43 177 -58 0 c-43 0 -58 -3 -55
-12z"/>
<path d="M1722 599 l3 -272 53 0 c28 0 52 3 52 7 0 3 0 125 0 271 l0 265 -55
0 -55 0 2 -271z"/>
<path d="M1990 671 c0 -228 -1 -231 -76 -231 l-45 0 3 -57 3 -58 63 1 c68 1
97 16 136 68 19 25 21 44 24 192 l3 164 138 0 c121 0 140 -2 154 -18 21 -23
22 -61 1 -90 -12 -18 -25 -22 -65 -22 l-49 0 0 40 0 40 -55 0 -55 0 2 -186 3
-186 52 -2 52 -1 3 85 3 85 68 6 c108 9 156 59 164 172 4 51 0 70 -19 107 -13
25 -38 55 -57 67 -33 22 -43 23 -242 23 l-209 0 0 -199z"/>
<path d="M812 816 c-55 -25 -101 -66 -180 -160 -41 -50 -100 -117 -131 -149
-54 -55 -55 -57 -23 -46 17 6 71 36 120 67 171 109 189 117 268 117 57 0 76
-4 93 -19 12 -11 24 -16 28 -13 3 4 1 41 -5 83 -8 59 -16 83 -35 101 -30 30
-90 39 -135 19z"/>
<path d="M951 578 c5 -18 9 -35 9 -38 0 -3 4 1 9 9 6 9 5 23 -2 38 -15 34 -27
28 -16 -9z"/>
<path d="M970 499 c-181 -20 -380 -78 -535 -155 -60 -30 -123 -65 -140 -78
-19 -16 11 -5 80 30 67 33 139 60 185 70 96 20 228 15 290 -13 l45 -20 40 33
c22 18 80 57 129 88 l89 56 -54 -1 c-30 -1 -88 -5 -129 -10z"/>
<path d="M1089 429 c-69 -45 -224 -173 -237 -196 -7 -12 -20 -12 -73 -4 -91
15 -292 13 -369 -3 -72 -16 -184 -55 -177 -63 3 -2 22 1 44 7 70 21 277 24
431 6 78 -9 149 -19 156 -22 9 -4 18 6 25 28 16 50 99 146 182 213 94 75 94
75 88 75 -3 0 -35 -19 -70 -41z"/>
</g>
</svg>
